<?xml version="1.0" encoding="UTF-8"?>
<svg xmlns="http://www.w3.org/2000/svg" viewBox="0 0 64 64">
  <rect width="64" height="64" rx="12" fill="#0a0e14"/>
  <g transform="matrix(0.0306,0,0,-0.0306,2.74,66.32)" fill="#ffffff">
    <path d="M1275 2029 c-143 -28 -329 -107 -467 -199 -145 -97 -320 -279 -419 -435 -139 -218 -198 -428 -186 -660 6 -121 35 -228 85 -314 60 -103 209 -220 249 -195 39 25 85 212 103 419 17 201 57 346 147 535 120 250 356 545 598 746 58 48 104 92 102 98 -5 14 -146 17 -212 5z"/>
    <path d="M1538 1913 c-117 -100 -250 -269 -356 -453 -111 -194 -167 -356 -197 -575 -31 -224 -53 -291 -173 -517 -39 -75 -72 -144 -72 -153 0 -39 166 8 310 87 121 67 263 191 353 310 89 118 202 345 245 493 66 227 82 483 42 665 -21 98 -58 183 -81 188 -8 1 -40 -19 -71 -45z"/>
  </g>
</svg>
